<?xml version="1.0" encoding="UTF-8" standalone="no"?>
<!-- Created with Inkscape (http://www.inkscape.org/) -->

<svg
   version="1.1"
   id="svg2"
   width="693.33331"
   height="693.33331"
   viewBox="0 0 693.33331 693.33331"
   sodipodi:docname="chat-1873543.ai"
   xmlns:inkscape="http://www.inkscape.org/namespaces/inkscape"
   xmlns:sodipodi="http://sodipodi.sourceforge.net/DTD/sodipodi-0.dtd"
   xmlns="http://www.w3.org/2000/svg"
   xmlns:svg="http://www.w3.org/2000/svg">
  <defs
     id="defs6">
    <clipPath
       clipPathUnits="userSpaceOnUse"
       id="clipPath18">
      <path
         d="M 0,520 H 520 V 0 H 0 Z"
         id="path16" />
    </clipPath>
  </defs>
  <sodipodi:namedview
     id="namedview4"
     pagecolor="#ffffff"
     bordercolor="#000000"
     borderopacity="0.25"
     inkscape:showpageshadow="2"
     inkscape:pageopacity="0.0"
     inkscape:pagecheckerboard="0"
     inkscape:deskcolor="#d1d1d1" />
  <g
     id="g8"
     inkscape:groupmode="layer"
     inkscape:label="chat-1873543"
     transform="matrix(1.3333333,0,0,-1.3333333,0,693.33333)">
    <path
       d="M 0,0 H 520 V 520 H 0 Z"
       style="fill:#ffffff;fill-opacity:1;fill-rule:nonzero;stroke:none"
       id="path10" />
    <g
       id="g12">
      <g
         id="g14"
         clip-path="url(#clipPath18)">
        <g
           id="g20"
           transform="translate(368.7175,190.9465)">
          <path
             d="m 0,0 h -67.707 l -16.252,-28.336 c -1.405,-2.449 -4.907,-2.533 -6.427,-0.154 L -104.211,0.209 -171.19,0 c -7.579,0 -13.78,6.201 -13.78,13.78 v 101.875 c 0,7.578 6.201,13.779 13.78,13.779 H 0 c 7.579,0 13.78,-6.201 13.78,-13.779 V 13.78 C 13.78,6.201 7.579,0 0,0"
             style="fill:#ffd55e;fill-opacity:1;fill-rule:nonzero;stroke:none"
             id="path22" />
        </g>
        <g
           id="g24"
           transform="translate(327.7068,237.2066)">
          <path
             d="m 0,0 h -67.707 l -16.252,-28.336 c -1.405,-2.449 -4.907,-2.533 -6.427,-0.154 L -104.211,0.209 -171.19,0 c -7.579,0 -13.78,6.201 -13.78,13.78 v 101.875 c 0,7.578 6.201,13.779 13.78,13.779 H 0 c 7.579,0 13.78,-6.201 13.78,-13.779 V 13.78 C 13.78,6.201 7.579,0 0,0"
             style="fill:#ffffff;fill-opacity:1;fill-rule:nonzero;stroke:none"
             id="path26" />
        </g>
        <g
           id="g28"
           transform="translate(332.9562,245.0806)">
          <path
             d="m 0,0 h -67.707 l -16.252,-28.336 c -1.405,-2.449 -4.907,-2.533 -6.427,-0.154 L -104.211,0.209 -171.19,0 c -7.579,0 -13.78,6.201 -13.78,13.78 v 101.875 c 0,7.578 6.201,13.779 13.78,13.779 H 0 c 7.579,0 13.78,-6.201 13.78,-13.779 V 13.78 C 13.78,6.201 7.579,0 0,0"
             style="fill:#ffffff;fill-opacity:1;fill-rule:nonzero;stroke:none"
             id="path30" />
        </g>
        <g
           id="g32"
           transform="translate(377.2631,200.2533)">
          <path
             d="m 0,0 c 0,-7.573 -6.162,-13.735 -13.735,-13.735 h -63 c -1.469,0 -2.829,-0.776 -3.578,-2.039 l -17.61,-29.743 -17.61,29.743 c -0.748,1.263 -2.108,2.039 -3.577,2.039 h -63 c -7.574,0 -13.736,6.162 -13.736,13.735 v 31.951 h 35.685 l 19.98,-33.744 c 0.749,-1.264 2.108,-2.039 3.577,-2.039 1.469,0 2.829,0.775 3.577,2.039 l 19.98,33.744 h 60.631 c 12.158,0 22.049,9.892 22.049,22.05 v 61.01 h 16.632 C -6.162,115.011 0,108.85 0,101.277 Z m -234.526,54.001 v 101.276 c 0,7.573 6.161,13.735 13.735,13.735 h 168.375 c 7.573,0 13.735,-6.162 13.735,-13.735 V 54.001 c 0,-7.574 -6.162,-13.735 -13.735,-13.735 h -63 c -1.469,0 -2.829,-0.776 -3.578,-2.039 l -17.61,-29.743 -17.61,29.743 c -0.749,1.263 -2.108,2.039 -3.578,2.039 h -62.999 c -7.574,0 -13.735,6.161 -13.735,13.735 m 220.791,69.325 h -16.632 v 31.951 c 0,12.158 -9.891,22.049 -22.049,22.049 h -168.375 c -12.158,0 -22.05,-9.891 -22.05,-22.049 V 54.001 c 0,-12.158 9.892,-22.05 22.05,-22.05 h 16.631 V 0 c 0,-12.158 9.892,-22.049 22.05,-22.049 h 60.63 l 19.979,-33.745 c 0.749,-1.264 2.109,-2.039 3.578,-2.039 1.469,0 2.829,0.775 3.577,2.039 l 19.981,33.745 h 60.63 c 12.158,0 22.049,9.891 22.049,22.049 v 101.277 c 0,12.158 -9.891,22.049 -22.049,22.049"
             style="fill:#333333;fill-opacity:1;fill-rule:nonzero;stroke:none"
             id="path34" />
        </g>
        <g
           id="g36"
           transform="translate(196.9776,300.3253)">
          <path
             d="m 0,0 h -13.78 c -3.185,0 -5.792,2.606 -5.792,5.792 v 13.78 c 0,3.185 2.607,5.792 5.792,5.792 H 0 c 3.186,0 5.792,-2.607 5.792,-5.792 V 5.792 C 5.792,2.606 3.186,0 0,0"
             style="fill:#48c0d8;fill-opacity:1;fill-rule:nonzero;stroke:none"
             id="path38" />
        </g>
        <g
           id="g40"
           transform="translate(251.8736,300.3253)">
          <path
             d="m 0,0 h -13.78 c -3.185,0 -5.792,2.606 -5.792,5.792 v 13.78 c 0,3.185 2.607,5.792 5.792,5.792 H 0 c 3.186,0 5.792,-2.607 5.792,-5.792 V 5.792 C 5.792,2.606 3.186,0 0,0"
             style="fill:#48c0d8;fill-opacity:1;fill-rule:nonzero;stroke:none"
             id="path42" />
        </g>
        <g
           id="g44"
           transform="translate(306.7697,300.3253)">
          <path
             d="m 0,0 h -13.78 c -3.185,0 -5.792,2.606 -5.792,5.792 v 13.78 c 0,3.185 2.607,5.792 5.792,5.792 H 0 c 3.186,0 5.792,-2.607 5.792,-5.792 V 5.792 C 5.792,2.606 3.186,0 0,0"
             style="fill:#48c0d8;fill-opacity:1;fill-rule:nonzero;stroke:none"
             id="path46" />
        </g>
        <g
           id="g48"
           transform="translate(175.5834,315.2743)">
          <path
             d="M 0,0 C -0.706,0 -1.302,-0.596 -1.302,-1.302 V -15.73 c 0,-0.706 0.596,-1.302 1.302,-1.302 h 14.428 c 0.706,0 1.302,0.596 1.302,1.302 V -1.302 C 15.73,-0.596 15.134,0 14.428,0 Z M 14.428,-25.364 H 0 c -5.312,0 -9.634,4.322 -9.634,9.634 v 14.428 c 0,5.312 4.322,9.634 9.634,9.634 h 14.428 c 5.312,0 9.634,-4.322 9.634,-9.634 V -15.73 c 0,-5.312 -4.322,-9.634 -9.634,-9.634"
             style="fill:#333333;fill-opacity:1;fill-rule:nonzero;stroke:none"
             id="path50" />
        </g>
        <g
           id="g52"
           transform="translate(230.4795,315.2743)">
          <path
             d="M 0,0 C -0.706,0 -1.302,-0.596 -1.302,-1.302 V -15.73 c 0,-0.706 0.596,-1.302 1.302,-1.302 h 14.428 c 0.706,0 1.302,0.596 1.302,1.302 V -1.302 C 15.73,-0.596 15.134,0 14.428,0 Z M 14.428,-25.364 H 0 c -5.312,0 -9.634,4.322 -9.634,9.634 v 14.428 c 0,5.312 4.322,9.634 9.634,9.634 h 14.428 c 5.312,0 9.634,-4.322 9.634,-9.634 V -15.73 c 0,-5.312 -4.322,-9.634 -9.634,-9.634"
             style="fill:#333333;fill-opacity:1;fill-rule:nonzero;stroke:none"
             id="path54" />
        </g>
        <g
           id="g56"
           transform="translate(285.3751,315.2743)">
          <path
             d="M 0,0 C -0.706,0 -1.302,-0.596 -1.302,-1.302 V -15.73 c 0,-0.706 0.596,-1.302 1.302,-1.302 h 14.428 c 0.706,0 1.302,0.596 1.302,1.302 V -1.302 C 15.73,-0.596 15.134,0 14.428,0 Z M 14.428,-25.364 H 0 c -5.312,0 -9.634,4.322 -9.634,9.634 v 14.428 c 0,5.312 4.322,9.634 9.634,9.634 h 14.428 c 5.313,0 9.634,-4.322 9.634,-9.634 V -15.73 c 0,-5.312 -4.321,-9.634 -9.634,-9.634"
             style="fill:#333333;fill-opacity:1;fill-rule:nonzero;stroke:none"
             id="path58" />
        </g>
      </g>
    </g>
  </g>
</svg>
